<svg xmlns="http://www.w3.org/2000/svg" xmlns:xlink="http://www.w3.org/1999/xlink" width="500" zoomAndPan="magnify" viewBox="0 0 375 374.999991" height="500" preserveAspectRatio="xMidYMid meet" version="1.0"><defs><clipPath id="19ef65b531"><path d="M 0 0.394531 L 44.378906 0.394531 L 44.378906 375 L 0 375 Z M 0 0.394531 " clip-rule="nonzero"/></clipPath><clipPath id="244ff28a7e"><path d="M 51.828125 0.394531 L 100.53125 0.394531 L 100.53125 375 L 51.828125 375 Z M 51.828125 0.394531 " clip-rule="nonzero"/></clipPath><clipPath id="08280bfb37"><path d="M 108.203125 0.394531 L 156.90625 0.394531 L 156.90625 375 L 108.203125 375 Z M 108.203125 0.394531 " clip-rule="nonzero"/></clipPath><clipPath id="1bdb498159"><path d="M 163.039062 0.394531 L 211.746094 0.394531 L 211.746094 375 L 163.039062 375 Z M 163.039062 0.394531 " clip-rule="nonzero"/></clipPath><clipPath id="e8ac364384"><path d="M 218.644531 0.394531 L 267.351562 0.394531 L 267.351562 375 L 218.644531 375 Z M 218.644531 0.394531 " clip-rule="nonzero"/></clipPath><clipPath id="0d03571c81"><path d="M 274.253906 0.394531 L 322.957031 0.394531 L 322.957031 375 L 274.253906 375 Z M 274.253906 0.394531 " clip-rule="nonzero"/></clipPath><clipPath id="38ad60be51"><path d="M 330.625 0.394531 L 375 0.394531 L 375 375 L 330.625 375 Z M 330.625 0.394531 " clip-rule="nonzero"/></clipPath></defs><g clip-path="url(#19ef65b531)"><path fill="#1faa4d" d="M -4.328125 0.394531 L 44.378906 0.394531 L 44.378906 383.832031 L -4.328125 383.832031 Z M -4.328125 0.394531 " fill-opacity="1" fill-rule="nonzero"/></g><g clip-path="url(#244ff28a7e)"><path fill="#29abe3" d="M 51.828125 0.394531 L 100.53125 0.394531 L 100.53125 383.832031 L 51.828125 383.832031 Z M 51.828125 0.394531 " fill-opacity="1" fill-rule="nonzero"/></g><g clip-path="url(#08280bfb37)"><path fill="#9747ff" d="M 108.203125 0.394531 L 156.90625 0.394531 L 156.90625 383.832031 L 108.203125 383.832031 Z M 108.203125 0.394531 " fill-opacity="1" fill-rule="nonzero"/></g><g clip-path="url(#1bdb498159)"><path fill="#f50467" d="M 163.039062 0.394531 L 211.746094 0.394531 L 211.746094 383.832031 L 163.039062 383.832031 Z M 163.039062 0.394531 " fill-opacity="1" fill-rule="nonzero"/></g><g clip-path="url(#e8ac364384)"><path fill="#f56d01" d="M 218.644531 0.394531 L 267.351562 0.394531 L 267.351562 383.832031 L 218.644531 383.832031 Z M 218.644531 0.394531 " fill-opacity="1" fill-rule="nonzero"/></g><g clip-path="url(#0d03571c81)"><path fill="#feda15" d="M 274.253906 0.394531 L 322.957031 0.394531 L 322.957031 383.832031 L 274.253906 383.832031 Z M 274.253906 0.394531 " fill-opacity="1" fill-rule="nonzero"/></g><g clip-path="url(#38ad60be51)"><path fill="#ff0100" d="M 330.625 0.394531 L 379.328125 0.394531 L 379.328125 383.832031 L 330.625 383.832031 Z M 330.625 0.394531 " fill-opacity="1" fill-rule="nonzero"/></g></svg>