<svg xmlns="http://www.w3.org/2000/svg" xmlns:xlink="http://www.w3.org/1999/xlink" width="500" zoomAndPan="magnify" viewBox="0 0 375 374.999991" height="500" preserveAspectRatio="xMidYMid meet" version="1.0"><defs><g/><clipPath id="4bb0c192a4"><path d="M 40.867188 0 L 78.097656 0 L 78.097656 290.601562 L 40.867188 290.601562 Z M 40.867188 0 " clip-rule="nonzero"/></clipPath><clipPath id="c0b62d8239"><path d="M 83.792969 0 L 121.019531 0 L 121.019531 290.601562 L 83.792969 290.601562 Z M 83.792969 0 " clip-rule="nonzero"/></clipPath><clipPath id="7de301b178"><path d="M 126.882812 0 L 164.109375 0 L 164.109375 290.601562 L 126.882812 290.601562 Z M 126.882812 0 " clip-rule="nonzero"/></clipPath><clipPath id="0219d01867"><path d="M 168.800781 0 L 206.027344 0 L 206.027344 290.601562 L 168.800781 290.601562 Z M 168.800781 0 " clip-rule="nonzero"/></clipPath><clipPath id="61e7bb7d95"><path d="M 211.304688 0 L 248.53125 0 L 248.53125 290.601562 L 211.304688 290.601562 Z M 211.304688 0 " clip-rule="nonzero"/></clipPath><clipPath id="e039ba1e76"><path d="M 253.808594 0 L 291.035156 0 L 291.035156 290.601562 L 253.808594 290.601562 Z M 253.808594 0 " clip-rule="nonzero"/></clipPath><clipPath id="9967634c0f"><path d="M 296.894531 0 L 334.125 0 L 334.125 290.601562 L 296.894531 290.601562 Z M 296.894531 0 " clip-rule="nonzero"/></clipPath></defs><g clip-path="url(#4bb0c192a4)"><path fill="#1faa4d" d="M 40.867188 -2.484375 L 78.097656 -2.484375 L 78.097656 290.601562 L 40.867188 290.601562 Z M 40.867188 -2.484375 " fill-opacity="1" fill-rule="nonzero"/></g><g clip-path="url(#c0b62d8239)"><path fill="#29abe3" d="M 83.792969 -2.484375 L 121.019531 -2.484375 L 121.019531 290.601562 L 83.792969 290.601562 Z M 83.792969 -2.484375 " fill-opacity="1" fill-rule="nonzero"/></g><g clip-path="url(#7de301b178)"><path fill="#9747ff" d="M 126.882812 -2.484375 L 164.109375 -2.484375 L 164.109375 290.601562 L 126.882812 290.601562 Z M 126.882812 -2.484375 " fill-opacity="1" fill-rule="nonzero"/></g><g clip-path="url(#0219d01867)"><path fill="#f50467" d="M 168.800781 -2.484375 L 206.027344 -2.484375 L 206.027344 290.601562 L 168.800781 290.601562 Z M 168.800781 -2.484375 " fill-opacity="1" fill-rule="nonzero"/></g><g clip-path="url(#61e7bb7d95)"><path fill="#f56d01" d="M 211.304688 -2.484375 L 248.53125 -2.484375 L 248.53125 290.601562 L 211.304688 290.601562 Z M 211.304688 -2.484375 " fill-opacity="1" fill-rule="nonzero"/></g><g clip-path="url(#e039ba1e76)"><path fill="#feda15" d="M 253.808594 -2.484375 L 291.035156 -2.484375 L 291.035156 290.601562 L 253.808594 290.601562 Z M 253.808594 -2.484375 " fill-opacity="1" fill-rule="nonzero"/></g><g clip-path="url(#9967634c0f)"><path fill="#ff0100" d="M 296.894531 -2.484375 L 334.125 -2.484375 L 334.125 290.601562 L 296.894531 290.601562 Z M 296.894531 -2.484375 " fill-opacity="1" fill-rule="nonzero"/></g><g fill="#000000" fill-opacity="1"><g transform="translate(38.956539, 345.199481)"><g><path d="M 9.65625 0 L 3 -6.65625 L 3 -37.546875 L 9.65625 -44.203125 L 32.390625 -44.203125 L 39.09375 -37.546875 L 39.09375 -28.609375 L 28.1875 -28.609375 L 28.1875 -33.578125 L 26.03125 -35.6875 L 16.375 -35.6875 L 14.21875 -33.578125 L 14.21875 -10.609375 L 16.375 -8.515625 L 26.390625 -8.515625 L 28.609375 -10.609375 L 28.609375 -15.65625 L 39.453125 -15.65625 L 39.453125 -6.65625 L 32.796875 0 Z M 9.65625 0 "/></g></g></g><g fill="#000000" fill-opacity="1"><g transform="translate(79.129671, 345.199481)"><g><path d="M 4.203125 0 L 4.203125 -44.203125 L 15.40625 -44.203125 L 15.40625 -9.109375 L 35.6875 -9.109375 L 35.6875 0 Z M 4.203125 0 "/></g></g></g><g fill="#000000" fill-opacity="1"><g transform="translate(115.705207, 345.199481)"><g><path d="M 9.65625 0 L 3 -6.65625 L 3 -37.546875 L 9.65625 -44.203125 L 35.5625 -44.203125 L 42.21875 -37.546875 L 42.21875 -6.65625 L 35.5625 0 Z M 16.375 -8.515625 L 28.96875 -8.515625 L 31.0625 -10.609375 L 31.0625 -33.578125 L 28.84375 -35.6875 L 16.375 -35.6875 L 14.21875 -33.578125 L 14.21875 -10.609375 Z M 16.375 -8.515625 "/></g></g></g><g fill="#000000" fill-opacity="1"><g transform="translate(160.914964, 345.199481)"><g><path d="M 4.4375 0 L 4.4375 -9 L 27.46875 -9 L 29.5625 -11.09375 L 29.5625 -16.015625 L 27.46875 -18.109375 L 9.359375 -18.109375 L 2.703125 -24.828125 L 2.703125 -37.546875 L 9.359375 -44.203125 L 38.265625 -44.203125 L 38.265625 -35.203125 L 15.828125 -35.203125 L 13.734375 -33.109375 L 13.734375 -29.203125 L 15.828125 -27.109375 L 33.9375 -27.109375 L 40.59375 -20.453125 L 40.59375 -6.65625 L 33.9375 0 Z M 4.4375 0 "/></g></g></g><g fill="#000000" fill-opacity="1"><g transform="translate(204.206013, 345.199481)"><g><path d="M 10.4375 0 L 3.890625 -6.65625 L 3.890625 -44.203125 L 15.109375 -44.203125 L 15.109375 -10.609375 L 17.21875 -8.515625 L 29.390625 -8.515625 L 31.484375 -10.609375 L 31.484375 -44.203125 L 42.703125 -44.203125 L 42.703125 -6.65625 L 36.046875 0 Z M 10.4375 0 "/></g></g></g><g fill="#000000" fill-opacity="1"><g transform="translate(250.794855, 345.199481)"><g><path d="M 4.203125 0 L 4.203125 -44.203125 L 34.296875 -44.203125 L 41.015625 -37.546875 L 41.015625 -21.703125 L 35.984375 -16.671875 L 42.703125 0 L 31.421875 0 L 25.609375 -15.046875 L 15.40625 -15.046875 L 15.40625 0 Z M 15.40625 -23.5625 L 28 -23.5625 L 30.109375 -25.671875 L 30.109375 -33.578125 L 28 -35.6875 L 15.40625 -35.6875 Z M 15.40625 -23.5625 "/></g></g></g><g fill="#000000" fill-opacity="1"><g transform="translate(295.285096, 345.199481)"><g><path d="M 4.203125 0 L 4.203125 -44.203125 L 37.78125 -44.203125 L 37.78125 -35.078125 L 15.40625 -35.078125 L 15.40625 -26.921875 L 35.5625 -26.921875 L 35.5625 -18.46875 L 15.40625 -18.46875 L 15.40625 -9.109375 L 37.78125 -9.109375 L 37.78125 0 Z M 4.203125 0 "/></g></g></g></svg>